<?xml version="1.0" encoding="UTF-8"?>
<svg id="Layer_1" xmlns="http://www.w3.org/2000/svg" version="1.1" viewBox="0 0 200 71">
  <!-- Generator: Adobe Illustrator 29.5.1, SVG Export Plug-In . SVG Version: 2.1.0 Build 141)  -->
  <defs>
    <style>
      .st0 {
        fill: #e4584b;
      }

      .st1 {
        fill: #0098cb;
      }

      .st2 {
        fill: #c69;
      }
    </style>
  </defs>
  <path class="st2" d="M161.68,25.66c3.02-.49,3.19,4.12.29,4.84-3.44.85-3.24-4.36-.29-4.84Z"/>
  <path class="st2" d="M199.4,51.23c-.89-1.2-3.58-2.41-5.04-2.41h-2.14c.77-3.84,1.19-7.81,2.11-11.62.42-1.73,1.39-3.75,1.69-5.34.1-.52.17-.8-.14-1.26-.88-1.34-2.08-1.5-2.91,0-3.35-3.98-7.87-.13-10.12,3-2.65,3.69-3.08,8.35-6.1,11.7-1.59,1.76-1.95.31-1.79-1.37.3-3.05,2.16-6.44,2.72-9.42.33-1.79-.02-3.57-2.22-3.57-3.41.01-6.72,5.94-8.03,8.64,0-1.74,1.65-4.76,1.28-6.39-.16-.72-2.22-1.79-2.87-1.41-.29.17-.72,2.86-.87,3.41-.94,3.59-2.65,8.53-5.01,11.41-1.71,2.08-2.68,1.54-2.23-1.12.3-1.75,1.06-4,1.58-5.73.32-1.04,1.73-4.45,1.7-5.2-.06-1.4-2.92-2.59-3.39-1.32-.18.49-.24,1.24-.41,1.8-.96,3.18-1.83,6.22-3.68,9.01-.78,1.17-5.26,7.22-5.75,3.05-.18-1.57.26-5.22.88-6.68.61-1.43,3.32-4.5,4.35-6.14,2.33-3.69,6.7-12.67,5.61-16.94-.64-2.51-2.86-2.37-4.59-.94-4.47,3.69-7.56,15.06-8.83,20.7-.31,1.39-.45,3.45-.85,4.67-.25.78-1.73,2.75-2.28,3.52-.58.82-1.31,1.55-1.77,2.44-.22.04-.14-.19-.14-.34.1-1.35.71-3.49,1.06-4.88.53-2.15,1.27-4.25,1.7-6.43-.07-.57-.94-1.01-1.42-1.21-2.73-1.1-2.16.08-2.65,2.1-.96,3.95-2.71,9-5.46,12.07-2.04,2.28-2.67.24-2.3-1.89.48-2.83,1.99-5.9,2.71-8.74.24-.93.61-2.02-.27-2.75-.55-.45-2-.88-2.61-.42-.45.34-.57,2.28-.73,2.99-.63,2.72-1.61,5.69-3.08,8.29-.96,1.39-2.37,2.91-3.13,3.25-2.78,1.28-1.78-3.99-1.55-5.2.43-2.23,1.04-4.41,1.72-6.57,1.41-.73,2.91-1.27,4.27-2.1.63-.39,3.42-2.21,2.3-3.1-.3-.24-.82-.11-1.15-.03-.59.15-1.16.38-1.72.62-.57.24-1.13.5-1.69.75-.1.04-.88.39-.91.3v-.05c.07-.27.2-.51.33-.76.19-.39.34-.86.12-1.28-.15-.29-.4-.52-.67-.69-.69-.45-1.65-.65-2.42-.29-.13.06-.26.14-.37.24-.25.22-.43.51-.59.81-.43.85-.69,1.77-1.07,2.64-.02.04-.04.09-.06.13-.02.06-.05.11-.08.17-1.26.3-2.53.52-3.81.74-1.38.24-3.43-.13-2.67,2.02.67,1.9,4.01,1.32,5.52.89l-.14.66c-4.06,1.6-5.71,2.2-7.62,2.92-.11-.12-.22-.24-.33-.37-4.79-5.11-13.65-8.73-13.28-15.6.14-2.5,1-9.08,17.02-17.06,13.12-6.54,23.62-4.74,25.44-.75,2.59,5.7-5.61,16.28-19.24,17.81-5.19.58-7.93-1.43-8.61-2.18-.71-.79-.82-.82-1.09-.67-.43.24-.16.94,0,1.35.41,1.06,2.08,2.94,4.92,3.87,2.51.82,8.6,1.27,15.97-1.58,8.26-3.19,14.7-12.08,12.81-19.5-1.93-7.55-14.45-10.03-26.3-5.82-7.06,2.51-14.69,6.44-20.18,11.57-6.53,6.11-7.57,11.42-7.14,13.64,1.51,7.83,12.25,12.96,16.66,16.76v.02c-1.3.64-10.83,5.46-13.05,10.39-2.35,5.2.37,8.93,2.18,9.43,5.59,1.56,11.33-1.24,14.42-5.84,2.98-4.44,2.71-10.25,1.42-13.1,2.18-1.11,4.3-2.05,5.53-2.57l.04-.23c-.12.67-.25,1.34-.36,2.02-.33,1.98-.69,4.04-.37,6.04.15.95.49,1.92,1.24,2.56,2.67,2.28,6.13-1.02,7.83-3.65.44,4.04,4.36,4.56,6.63,1.52l2.55-3.73-1.04,5.23c-3.53,3.38-11.47,9.26-11.92,14.44-.31,3.59,2.14,5.27,5.47,4.09,6.89-2.43,8.95-14.13,10.64-20.27l4.45-5.56v2.69c0,.63.84,2.49,1.31,2.97.43.44,1.47.94,2.08.97,2.79.16,5.68-4.3,6.83-6.49.22-.04.14.19.14.35-.02,1.23-.25,2.08.2,3.37,1.47,4.17,6.42-.25,7.1-2.75.22-.04.15.2.14.35-.05,1.11-.52,2.41.87,2.99,2.69,1.12,2.35-.72,2.81-2.48.96-3.69,4.18-10.17,7.29-12.44,1.08-.79,1.17-.48,1,.72-.49,3.37-4.05,9.56-1.62,12.73,2.56,3.34,6.41-2.22,7.18-4.49.35.21.22.92.31,1.28.8,3.07,2.73,3.99,5.47,2.23,2.05-1.32,3.34-3.57,4.84-5.44l-1.58,7.87c-5.34,1.39-11.7,4.36-14.54,9.34-3.23,5.65-.03,10.74,6.46,8.81,6.76-2.01,10.16-10.77,11.47-17.03,2.22-.28,6.69.6,6.32,3.63-.04.29-.81,1.79.15,1.55,1.87-.47,2.15-2.87,1.1-4.29h0l.04-.05ZM153.21,24.91c.59-1.53,1.34-3.34,2.15-4.75.23-.41,1.07-1.96,1.61-1.84.49.59.28,1.53.17,2.24-.27,1.87-.99,4.02-1.65,5.8-1.51,4.05-3.58,7.97-6.17,11.42,1-4.31,2.3-8.75,3.9-12.87h0ZM110.17,52.73c-.07.21-.15.43-.23.64s-.18.42-.28.62c-.49,1.02-1.15,1.98-1.96,2.86-2.47,2.69-5.92,3.71-7.4,2.86-1.6-.93-.8-4.73,2.07-7.75,3.08-3.26,7.52-5.35,7.52-5.35h0c.13-.08.26-.15.39-.22.62,2.29.55,4.42-.09,6.36h0l-.02-.02ZM131.01,64.81c-.69,1.16-3.52,5.03-5.12,3.42-1.11-1.11.46-4.23,1.14-5.33,1.9-3.07,4.94-5.67,7.65-8.02-.8,3.33-1.9,6.98-3.67,9.93h0ZM180.51,64.77c-3.11,1.9-6.77.43-5.46-3.67,1.61-5.06,8.04-8.89,12.89-10.22-1.15,4.28-3.45,11.46-7.43,13.89ZM191.16,34.99c-.86,2.94-2.84,7.01-5.28,8.93-3.13,2.47-2.73-2.33-2.25-4.18.64-2.42,3.84-8.34,6.49-8.83,2.57-.48,1.45,2.67,1.04,4.08Z"/>
  <path class="st0" d="M76.88,41.47c2.55-2.86,4.94-6.71,6.74-10.11,1.68-3.16,4.4-8.84,3.51-12.38-.31-1.22-1.12-2.01-2.41-1.96-3.02.13-6.85,6.42-8.2,8.88-3.19,5.76-5.6,12.18-7.05,18.6-.37.38-3.28,2.1-3.53,1.86,1-2.75,1.9-8.81-1.77-9.95-4-1.24-7.87,3.73-9.67,6.69-.32.53-.59,1.31-.92,1.79-.45.64-2.61,2.19-3.36,2.41-.17.05-.2,0-.18-.17,1.15-3.8,1.16-10.95-4.73-9.33-3.97,1.09-7.16,6.73-8.51,10.34-.12.33-.18,1.04-.33,1.26-.39.55-2.62,2.57-3.26,3.16-3.7,3.4-7.37,5.91-12.39,6.93-10.2,2.06-14.76-4.7-13.26-14.2,1.59-10.07,10.66-19.71,19.79-23.67,3.85-1.67,13.39-5.09,15.96-.25,3.09,5.82-4.53,14.49-10.52,14.41-.78,0-2.96-.95-2.63.74.24,1.19,2.52,1.86,3.57,1.86,8.42.08,18.99-15.09,10.58-21.31-6.13-4.54-16.87-1.78-23.09,1.49C11.88,23.46,3.73,32.33,1.43,42.83c-3.82,17.48,10.77,26.47,25.49,17.25,3.39-2.12,6.2-4.97,8.96-7.82v2.41c0,1.12,1.19,3.15,2.2,3.69,4.75,2.56,9.89-4.94,11.11-8.76l3.18-1.58c-.66,2.75-1.45,6.57,1.06,8.66,4.61,3.83,10.34-3.89,11.57-7.81l3.86-1.68c-.52,2.96-1,8.95,3.36,9.08,3.8.11,8.1-5.52,9.74-8.53.24-.45,1.08-1.97,1.04-2.37-.05-.49-.58-.84-1.01-.55-.33.22-1.77,2.76-2.19,3.34-1.05,1.46-3.49,4.64-5.46,4.44-2.19-.22-1.35-3.79-1.08-5.21.71-3.75,1.34-3.38,3.61-5.93h.01ZM74.94,40.82c1.15-5.16,5.42-15.84,8.73-19.89.35-.43,1.22-1.38,1.79-.81.1.1.13.35.14.5.27,2.62-2.77,8.9-4.1,11.33-1.84,3.36-4.1,6.58-6.62,9.46-.02-.2,0-.4.05-.59h.01ZM42.83,55.25c-3.3,2.04-3.07-2.14-2.66-4.19.38-1.92,1.15-4.04,2.26-5.63.33,2.18,2.1,4.03,4.3,4.36-.75,2.04-2,4.3-3.9,5.47h0ZM47.65,47.65c-3.33.19-3.58-4.53-2.24-6.66,1.06-1.69,2.98-1.76,3.2.49.21,2.09-.35,4.2-.96,6.17ZM61.19,51.59c-.64.9-2.46,2.85-3.59,2.9-1.75.08-1.76-2-1.69-3.23.14-2.47,1.05-4.87,2.41-6.89.41,2.19,2.12,4.15,4.42,4.36.11.12-1.35,2.57-1.55,2.86ZM64.75,42.06c-.05.59-.84,4.26-1.12,4.54-.51.53-1.98-.81-2.3-1.24-1.26-1.74-.43-6.59,1.98-6.87,1.64-.19,1.52,2.53,1.44,3.57h0Z"/>
  <path class="st1" d="M76.06,40.25c2.55-2.86,4.94-6.71,6.74-10.11,1.68-3.16,4.4-8.84,3.51-12.38-.31-1.22-1.12-2.01-2.41-1.96-3.02.13-6.85,6.42-8.2,8.88-3.19,5.76-5.6,12.18-7.05,18.6-.37.38-3.28,2.1-3.53,1.86,1-2.75,1.9-8.81-1.77-9.95-4-1.24-7.87,3.73-9.67,6.69-.32.53-.59,1.31-.92,1.79-.45.64-2.61,2.19-3.36,2.41-.17.05-.2,0-.18-.17,1.15-3.8,1.16-10.95-4.73-9.33-3.97,1.09-7.16,6.73-8.51,10.34-.12.33-.18,1.04-.33,1.26-.39.55-2.62,2.57-3.26,3.16-3.7,3.4-7.37,5.91-12.39,6.93-10.2,2.06-14.76-4.7-13.26-14.2,1.59-10.07,10.66-19.71,19.79-23.67,3.85-1.67,13.39-5.09,15.96-.25,3.09,5.82-4.53,14.49-10.52,14.41-.78,0-2.96-.95-2.63.74.24,1.19,2.52,1.86,3.57,1.86,8.42.08,18.99-15.09,10.58-21.31-6.13-4.54-16.87-1.78-23.09,1.49C11.06,22.23,2.91,31.1.62,41.6c-3.82,17.48,10.77,26.47,25.49,17.25,3.39-2.12,6.2-4.97,8.96-7.82v2.41c0,1.12,1.19,3.15,2.2,3.69,4.75,2.56,9.89-4.94,11.11-8.76l3.18-1.58c-.66,2.75-1.45,6.57,1.06,8.66,4.61,3.83,10.34-3.89,11.57-7.81l3.86-1.68c-.52,2.96-1,8.95,3.36,9.08,3.8.11,8.1-5.52,9.74-8.53.24-.45,1.08-1.97,1.04-2.37-.05-.49-.58-.84-1.01-.55-.33.22-1.77,2.76-2.19,3.34-1.05,1.46-3.49,4.64-5.46,4.44-2.19-.22-1.35-3.79-1.08-5.21.71-3.75,1.34-3.38,3.61-5.93h0v.02ZM74.12,39.59c1.15-5.16,5.42-15.84,8.73-19.89.35-.43,1.22-1.38,1.79-.81.1.1.13.35.14.5.27,2.62-2.77,8.9-4.1,11.33-1.84,3.36-4.1,6.58-6.62,9.46-.02-.2,0-.4.05-.59h0ZM42.01,54.02c-3.3,2.04-3.07-2.14-2.66-4.19.38-1.92,1.15-4.04,2.26-5.63.33,2.18,2.1,4.03,4.3,4.36-.75,2.04-2,4.3-3.9,5.47h0ZM46.84,46.42c-3.33.19-3.58-4.53-2.24-6.66,1.06-1.69,2.98-1.76,3.2.49.21,2.09-.35,4.2-.96,6.17ZM60.38,50.36c-.64.9-2.46,2.85-3.59,2.9-1.75.08-1.76-2-1.69-3.23.14-2.47,1.05-4.87,2.41-6.89.41,2.19,2.12,4.15,4.42,4.36.11.12-1.35,2.57-1.55,2.86h0ZM63.93,40.84c-.05.59-.84,4.26-1.12,4.54-.51.53-1.98-.81-2.3-1.24-1.26-1.74-.43-6.59,1.98-6.87,1.64-.19,1.52,2.53,1.44,3.57h0Z"/>
</svg>